<svg xmlns="http://www.w3.org/2000/svg" viewBox="0 0 1280 720" font-family="ui-sans-serif, system-ui, -apple-system, Segoe UI, Roboto, Helvetica, Arial, sans-serif" stroke-linecap="round" stroke-linejoin="round">
  <style>
    svg {
      --ink: #182b40;
      --muted: #536579;
      --line: #7b8da0;
      --surface: #edf2f6;
      --paper: #ffffff;
      --accent: #006e69;
      --accent-soft: #d6efea;
      --warn: #ad442c;
      --warn-soft: #fbe5dd;
    }
    @media (prefers-color-scheme: dark) {
      svg {
        --ink: #edf3fa;
        --muted: #b1c1d3;
        --line: #8196ad;
        --surface: #202e40;
        --paper: #152233;
        --accent: #68ded0;
        --accent-soft: #183e40;
        --warn: #ffac8f;
        --warn-soft: #482c2b;
      }
    }
    text { fill: var(--ink); }
    .headline { font-size: 48px; font-weight: 750; letter-spacing: -1.6px; }
    .label { font-size: 22px; font-weight: 600; }
    .code { font-size: 20px; font-weight: 500; }
  </style>
  <text x="64" y="105" class="headline" text-anchor="start" style="fill: var(--ink)">LGTM is a loan. On-call pays it back.</text>
  <rect x="82" y="213" width="338" height="378" rx="16" fill="var(--surface)" stroke="var(--line)" stroke-width="3"/>
  <rect x="98" y="227" width="338" height="378" rx="16" fill="var(--paper)" stroke="var(--ink)" stroke-width="3"/>
  <path d="M98 261H436" fill="none" stroke="var(--line)" stroke-width="2"/>
  <path d="M122 288H129" fill="none" stroke="var(--warn)" stroke-width="2"/>
  <path d="M139 288H350.0" fill="none" stroke="var(--muted)" stroke-width="3"/>
  <path d="M122 306H129" fill="none" stroke="var(--accent)" stroke-width="2"/>
  <path d="M139 306H287.29999999999995" fill="none" stroke="var(--muted)" stroke-width="3"/>
  <path d="M122 324H129" fill="none" stroke="var(--accent)" stroke-width="2"/>
  <path d="M139 324H381.35" fill="none" stroke="var(--muted)" stroke-width="3"/>
  <path d="M122 342H129" fill="none" stroke="var(--warn)" stroke-width="2"/>
  <path d="M139 342H312.95000000000005" fill="none" stroke="var(--muted)" stroke-width="3"/>
  <path d="M122 360H129" fill="none" stroke="var(--accent)" stroke-width="2"/>
  <path d="M139 360H244.55" fill="none" stroke="var(--muted)" stroke-width="3"/>
  <path d="M122 378H129" fill="none" stroke="var(--accent)" stroke-width="2"/>
  <path d="M139 378H338.6" fill="none" stroke="var(--muted)" stroke-width="3"/>
  <path d="M122 396H129" fill="none" stroke="var(--warn)" stroke-width="2"/>
  <path d="M139 396H278.75" fill="none" stroke="var(--muted)" stroke-width="3"/>
  <path d="M122 414H129" fill="none" stroke="var(--accent)" stroke-width="2"/>
  <path d="M139 414H350.0" fill="none" stroke="var(--muted)" stroke-width="3"/>
  <path d="M122 432H129" fill="none" stroke="var(--accent)" stroke-width="2"/>
  <path d="M139 432H287.29999999999995" fill="none" stroke="var(--muted)" stroke-width="3"/>
  <path d="M122 450H129" fill="none" stroke="var(--warn)" stroke-width="2"/>
  <path d="M139 450H381.35" fill="none" stroke="var(--muted)" stroke-width="3"/>
  <path d="M122 468H129" fill="none" stroke="var(--accent)" stroke-width="2"/>
  <path d="M139 468H312.95000000000005" fill="none" stroke="var(--muted)" stroke-width="3"/>
  <path d="M122 486H129" fill="none" stroke="var(--accent)" stroke-width="2"/>
  <path d="M139 486H244.55" fill="none" stroke="var(--muted)" stroke-width="3"/>
  <path d="M122 504H129" fill="none" stroke="var(--warn)" stroke-width="2"/>
  <path d="M139 504H338.6" fill="none" stroke="var(--muted)" stroke-width="3"/>
  <path d="M122 522H129" fill="none" stroke="var(--accent)" stroke-width="2"/>
  <path d="M139 522H278.75" fill="none" stroke="var(--muted)" stroke-width="3"/>
  <path d="M122 540H129" fill="none" stroke="var(--accent)" stroke-width="2"/>
  <path d="M139 540H350.0" fill="none" stroke="var(--muted)" stroke-width="3"/>
  <path d="M122 558H129" fill="none" stroke="var(--warn)" stroke-width="2"/>
  <path d="M139 558H287.29999999999995" fill="none" stroke="var(--muted)" stroke-width="3"/>
  <path d="M456 397H532" fill="none" stroke="var(--warn)" stroke-width="3"/>
  <path d="M522.0 391.0L532 397L522.0 403.0" fill="none" stroke="var(--warn)" stroke-width="3"/>
  <rect x="550" y="356" width="164" height="82" rx="16" fill="var(--accent-soft)" stroke="var(--accent)" stroke-width="3"/>
  <text x="632" y="407" class="label" text-anchor="middle" style="fill: var(--accent)">LGTM</text>
  <path d="M735 397H824" fill="none" stroke="var(--warn)" stroke-width="3"/>
  <path d="M814.0 391.0L824 397L814.0 403.0" fill="none" stroke="var(--warn)" stroke-width="3"/>
  <rect x="859" y="289" width="295" height="218" rx="16" fill="var(--paper)" stroke="var(--ink)" stroke-width="3"/>
  <rect x="880" y="317" width="253" height="139" rx="16" fill="var(--warn-soft)" stroke="var(--warn)" stroke-width="3"/>
  <text x="1007" y="407" class="headline" text-anchor="middle" style="fill: var(--warn)">03:00</text>
  <circle cx="1007" cy="480" r="7" fill="var(--surface)" stroke="var(--line)" stroke-width="2"/>
  <path d="M900 535H1112M858 264l-17-20M1156 264l17-20M1007 268V239" fill="none" stroke="var(--warn)" stroke-width="3"/>
  <path d="M906 342l10-17 10 17Z" fill="none" stroke="var(--warn)" stroke-width="3"/>
  <path d="M916 332L916 335" fill="none" stroke="var(--warn)" stroke-width="2"/>
  <path d="M64 650H1216" fill="none" stroke="var(--ink)" stroke-width="3"/>
  <rect x="553" y="578" width="143" height="52" rx="8" fill="var(--paper)" stroke="var(--ink)" stroke-width="3"/>
  <rect x="697" y="594" width="9" height="20" rx="3" fill="var(--ink)" stroke="none" stroke-width="3"/>
  <rect x="562" y="587" width="16" height="34" rx="4" fill="var(--warn)" stroke="var(--warn)" stroke-width="2"/>
  <path d="M630 588l-13 16h15l-12 17" fill="none" stroke="var(--warn)" stroke-width="3"/>
</svg>
